<svg width="18" height="18" viewBox="0 0 18 18" xmlns="http://www.w3.org/2000/svg"><path d="M9.234 5.555c-1.871 0-3.389 1.454-3.389 3.25 0 1.794 1.518 3.25 3.389 3.25 1.871 0 3.389-1.456 3.389-3.25 0-1.796-1.518-3.25-3.39-3.25zm6.513 1.997h-1.484c.14.455.217.935.217 1.434 0 2.777-2.35 5.03-5.246 5.03-2.897 0-5.246-2.253-5.246-5.03 0-.499.077-.979.217-1.434H2.656v7.055c0 .365.302.663.67.663h11.751c.37 0 .67-.298.67-.663V7.552zm-2.673-5.207c-.42 0-.76.34-.76.753v1.8c0 .413.34.751.76.751h1.907c.417 0 .76-.338.76-.752V3.098a.759.759 0 00-.76-.753h-1.907zM2.947.491H15.49c1.192 0 2.166.964 2.166 2.144v12.412c0 1.179-.974 2.142-2.166 2.142H2.947c-1.192 0-2.166-.963-2.166-2.142V2.635C.78 1.455 1.755.49 2.947.49z" fill="#3A3A3A" fill-rule="evenodd"/></svg>